<svg xmlns="http://www.w3.org/2000/svg" xmlns:xlink="http://www.w3.org/1999/xlink" viewBox="0 75 1102 150">
  <path fill="none" stroke="#1E1935" stroke-width="3" stroke-miterlimit="10" d="M332.3 167.8H33.9c-6.6 0-12-5.4-12-12v-35.6c0-6.6 5.4-12 12-12h298.4c6.6 0 12 5.4 12 12v35.6c0 6.6-5.4 12-12 12z"/>
  <path fill="#3E3565" d="M61.9 158.7H44.4c-6.6 0-12-5.4-12-12v-17.5c0-6.6 5.4-12 12-12h17.5c6.6 0 12 5.4 12 12v17.5c0 6.6-5.4 12-12 12zm51.9 0H96.3c-6.6 0-12-5.4-12-12v-17.5c0-6.6 5.4-12 12-12h17.5c6.6 0 12 5.4 12 12v17.5c0 6.6-5.4 12-12 12zm53.3 0h-17.5c-6.6 0-12-5.4-12-12v-17.5c0-6.6 5.4-12 12-12h17.5c6.6 0 12 5.4 12 12v17.5c0 6.6-5.4 12-12 12zm52.9 0h-17.5c-6.6 0-12-5.4-12-12v-17.5c0-6.6 5.4-12 12-12H220c6.6 0 12 5.4 12 12v17.5c0 6.6-5.4 12-12 12zm50-.6h-17.5c-6.6 0-12-5.4-12-12v-17.5c0-6.6 5.4-12 12-12H270c6.6 0 12 5.4 12 12v17.5c0 6.6-5.4 12-12 12zm51.7.6h-17.5c-6.6 0-12-5.4-12-12v-17.5c0-6.6 5.4-12 12-12h17.5c6.6 0 12 5.4 12 12v17.5c0 6.6-5.4 12-12 12z"/>
  <path fill="#1E1935" d="M723.8 125.4c.4 0 .8.1 1.1.4l10.7 10.7c.3.3.4.7.4 1.1 0 .4-.1.8-.4 1.1l-10.7 10.7c-.3.3-.7.4-1.1.4-.4 0-.8-.1-1.1-.4-.3-.3-.4-.7-.4-1.1 0-.4.1-.8.4-1.1l8.1-8.1s1.5-1.6 0-3.1l-8.1-8.1c-.3-.3-.4-.7-.4-1.1 0-.4.1-.8.4-1.1s.7-.3 1.1-.3z" />
  <path fill="none" stroke="#1E1935" stroke-width="4" stroke-miterlimit="10" d="M454 138h-87m349 0h-87" stroke-linecap="round" stroke-linejoin="round" stroke-dasharray="0 8"/>
  <path fill="#1E1935" stroke="#1E1935" stroke-width="3" stroke-miterlimit="10" d="M477 117.6h137.8v38.9H477z"/>
  <path fill="#FFF" d="M489.8 127.4h8c1.8 0 3.2.5 4.3 1.6 1.1 1.1 1.6 2.5 1.6 4.4s-.5 3.3-1.6 4.4c-1.1 1.1-2.5 1.6-4.3 1.6h-4.2v6.6h-3.8v-18.6zm3.8 3.4v5.2h3.7c1.5 0 2.6-.9 2.6-2.6s-1.1-2.6-2.6-2.6h-3.7zm23.3 15.2l-3.6-6.7h-3.1v6.7h-3.8v-18.6h7.9c1.8 0 3.3.5 4.3 1.6 1.1 1 1.6 2.5 1.6 4.4 0 2.6-1.1 4.4-3 5.3l3.9 7.3h-4.2zm-6.7-10.1h3.6c1.5 0 2.6-.9 2.6-2.5 0-1.7-1-2.6-2.6-2.6h-3.6v5.1zm25.6-5.1h-8.1v4h7v3.3h-7v4.5h8.1v3.4h-11.9v-18.6h11.9v3.4zm3-3.4h7.6c2.7 0 4.9.8 6.6 2.5s2.6 3.9 2.6 6.8-.9 5.1-2.6 6.8c-1.7 1.7-3.9 2.5-6.6 2.5h-7.6v-18.6zm3.8 3.3v12h3.8c3.3 0 5.4-2.1 5.4-6s-2-6-5.4-6h-3.8zm20 15.3h-3.8v-18.6h3.8V146zm18.3-16.9c1.6 1.3 2.6 3 3 5.2l-4 .3c-.5-2.6-2.4-4-4.9-4-1.6 0-3 .6-3.9 1.7-1 1.1-1.5 2.6-1.5 4.5 0 2 .5 3.5 1.5 4.5 1 1.1 2.3 1.6 3.9 1.6 2.6 0 4.4-1.4 4.9-3.9l4 .3c-.3 2.2-1.3 3.8-3 5.1-1.6 1.3-3.6 1.9-5.9 1.9-2.8 0-5.1-.9-6.8-2.6s-2.6-4-2.6-7 .9-5.3 2.6-7 4-2.6 6.8-2.6c2.4.1 4.3.7 5.9 2zm20.8 1.7h-6.2V146h-3.8v-15.2h-6.2v-3.4h16.3v3.4z"/>
  <path stroke="#FFF" stroke-width="1.5" d="M624 51l2-2m-1 11l10-10m-1 11l2-2"/>
  <path fill="none" stroke="#1E1935" stroke-width="3" stroke-miterlimit="10" d="M814.3 169.4h-38c-6.6 0-12-5.4-12-12v-38c0-6.6 5.4-12 12-12h38c6.6 0 12 5.4 12 12v38c0 6.6-5.4 12-12 12z"/>
  <path d="M788.6 145.9h-3.4v-16.5h3.4v16.5zm3.3-16.5h6.8c2.4 0 4.4.7 5.9 2.2 1.5 1.5 2.3 3.5 2.3 6s-.8 4.6-2.3 6c-1.5 1.5-3.5 2.2-5.9 2.2h-6.8v-16.4zm3.4 2.9V143h3.4c2.9 0 4.8-1.9 4.8-5.3 0-3.5-1.8-5.3-4.8-5.3h-3.4z"/>
</svg>
